<svg width="24" height="21" viewBox="0 0 24 21" fill="none" xmlns="http://www.w3.org/2000/svg">
<path d="M0 1.71429C0 0.766071 0.766071 0 1.71429 0H22.2857C23.2339 0 24 0.766071 24 1.71429C24 2.6625 23.2339 3.42857 22.2857 3.42857H1.71429C0.766071 3.42857 0 2.6625 0 1.71429ZM0 10.2857C0 9.3375 0.766071 8.57143 1.71429 8.57143H22.2857C23.2339 8.57143 24 9.3375 24 10.2857C24 11.2339 23.2339 12 22.2857 12H1.71429C0.766071 12 0 11.2339 0 10.2857ZM24 18.8571C24 19.8054 23.2339 20.5714 22.2857 20.5714H1.71429C0.766071 20.5714 0 19.8054 0 18.8571C0 17.9089 0.766071 17.1429 1.71429 17.1429H22.2857C23.2339 17.1429 24 17.9089 24 18.8571Z" fill="white"/>
</svg>
